<svg width="365" height="545" viewBox="0 0 365 545" fill="none" xmlns="http://www.w3.org/2000/svg">
<path d="M182.439 0.82264L208.945 4.97221L208.507 7.77067L218.674 11.2165L234.729 13.7299L234.283 16.5843L242.802 17.9181L252.023 21.2157L263.345 22.9882L264.354 28.9374L267.194 29.382L268.578 26.7318C272.442 31.7233 274.128 29.7509 279.304 31.5073C283.45 32.9018 280.983 33.3566 288.674 34.6563L292.677 40.0613C292.607 45.0963 295.614 50.9763 300.441 53.4713C302.546 54.2118 307.279 54.7711 309.747 54.9281L309.274 57.9504L316.847 59.136L316.117 63.8001L322.814 70.5826C319.837 72.8115 319.815 73.0757 318.952 76.6677C329.157 78.9439 323.174 83.2731 333.076 85.5686L332.638 88.3671L337.371 89.1081L337.366 101.531L341.59 99.3255L348.796 109.055L345.372 112.341L355.493 115.837L355.488 128.26L358.328 128.705L357.592 145.792L360.432 146.237L359.702 150.901L362.542 151.345L361.807 168.432L364.647 168.877L363.478 176.339L360.638 175.895L357.385 185.898L357.262 197.337L355.043 203.766L354.92 208.334L352.027 218.508L349.188 218.064L347.289 230.19C341.979 231.71 341.945 233.788 341.096 238.777L338.256 238.333L334.464 250.163L331.624 249.718L327.978 260.616L325.138 260.171L323.97 267.634L321.13 267.189C318.712 277.925 309.144 274.554 306.704 285L298.4 288.479L297.67 293.143L292.937 292.402L290.746 306.394L287.468 308.748L295.041 309.933L294.311 314.597C304.438 319.231 288.795 328.585 288.918 318.445L289.635 313.865C284.268 315.376 284.234 317.454 283.385 322.444L276.103 319.392L276.98 313.795L279.966 313.307C276.913 309.943 277.787 308.761 278.44 304.467L281.28 304.912L287.997 262.002L285.158 261.558L285.888 256.894L288.728 257.338L290.918 243.346L288.078 242.901L287.791 232.344L281.673 234.253L282.842 226.791L278.108 226.05L277.968 214.559L270.394 213.374L271.271 207.777C267.138 206.853 265.245 206.308 264.428 201.927L259.694 201.186L257.363 203.688L259.986 199.321L254.967 200.408L253.074 200.111L245.567 198.936L238.214 195.912L237.705 192.965L236.32 195.616L233.48 195.171L229.185 191.632L228.747 194.43L225.907 193.985C223.868 189.662 219.387 190.098 214.985 189.409L211.707 191.762L212.438 187.098L204.572 187.778C206.036 191.687 207.47 192.437 211.415 193.628L210.977 196.426L203.404 195.241L201.949 192.146L201.219 196.81L186.364 192.573L186.803 189.775L172.895 185.686L169.33 177.483L164.597 176.742L165.035 173.943L157.754 170.892L157.029 163.133L140.281 158.6L138.171 153.491L136.278 153.195C133.693 155.275 131.557 154.358 128.413 153.875L117.053 152.096C114.173 151.598 111.292 149.933 108.533 150.763L106.64 150.466L104.092 148.156L104.968 142.559C92.6919 140.503 98.8785 136.359 88.951 133.362L88.4425 130.415L87.0577 133.065L84.2178 132.621C81.6208 123.995 79.3353 131.904 71.6193 132.56L67.3895 147.189L64.5495 146.744L63.5273 153.274L66.3672 153.718L65.199 161.181L62.359 160.736L61.9209 163.535C65.1637 165.495 64.2258 167.087 63.7386 170.509L60.8987 170.064L57.107 181.895L61.8402 182.636L59.7304 177.527L63.0789 180.918C66.4766 177.924 67.6793 178.79 72.0368 179.454L71.3066 184.118L78.8798 185.303L78.4417 188.102L90.456 191.894L90.0179 194.692L101.086 198.336C102.549 202.245 103.984 202.995 107.929 204.186L107.49 206.985L112.224 207.726L111.786 210.524C115.918 211.448 117.811 211.993 118.629 216.374C124.864 217.369 127.682 217.275 127.073 224.385L129.913 224.83L126.554 246.285L123.714 245.84L122.546 253.303L117.813 252.562L118.543 247.898L114.248 244.358L113.079 251.821C106.681 248.583 111.831 248.768 101.211 247.096C105.421 241.887 104.693 243.378 105.803 236.346L102.455 232.955L98.2302 235.161L97.5 239.825L89.6348 240.505L89.1967 243.303L82.5702 242.266L83.0083 239.468C75.0362 237.981 78.3479 236.836 71.7241 231.011L70.7019 237.541L67.4238 239.895L82.2781 244.132L81.4019 249.729L75.722 248.839L76.1601 246.041L71.4269 245.3L68.8034 249.668L73.5367 250.409L73.0986 253.207L65.5254 252.022L65.9635 249.223C59.9815 248.22 55.9486 246.289 54.8254 239.834C47.7636 238.231 48.7158 235.619 49.6592 229.468C40.3466 225.765 45.9777 228.328 37.3528 227.542C35.2896 231.366 33.3811 230.857 32.0728 233.577C29.8519 238.161 35.205 242.191 27.151 243.147L26.4209 247.811L29.2608 248.256L28.8227 251.054L25.8367 251.542C28.659 254.268 29.191 254.896 29.5477 258.813L28.0925 255.718L25.2526 255.274L22.9212 257.776L24.5276 247.515L21.8337 246.137C24.789 243.924 27.57 239.046 26.4355 235.389L26.7275 233.524C29.7438 230.24 27.5015 228.704 28.1879 224.196L31.6781 214.23L26.45 216.278L24.7107 227.388L21.1086 238.378L16.2895 269.161L16.6525 278.861L13.3069 300.232L17.8048 302.847L17.0798 295.088L17.3719 293.223L20.4334 286.057L25.1667 286.798L27.4225 290.973L24.4365 291.462L23.9984 294.26C27.4363 296.337 26.2228 298.574 25.6701 302.167L28.364 303.545C23.7921 306.977 24.3119 310.843 23.4796 316.16L28.6509 314.102L26.8677 318.678L26.0689 323.78L21.5811 328.286L26.3143 329.027L29.5924 326.673L28.8622 331.337L24.129 330.596L24.4159 341.154L29.1491 341.895L27.6888 351.223L30.3827 352.6L27.3967 353.089L26.9586 355.887C30.2081 357.371 30.5204 357.792 30.9617 361.292L33.8016 361.737C35.2914 358.539 35.7176 358.233 39.265 357.814L39.7031 355.015L37.0092 353.638C41.6734 350.545 42.3804 349.127 48.2985 349.671L49.0287 345.007L53.7619 345.748L54.2 342.95L58.9332 343.691L59.3713 340.892C69.6838 341.121 61.7888 339.885 71.6777 342.819L72.4079 338.155L78.5963 341.99L79.3265 337.326L82.1664 337.771L82.8966 333.107C75.2569 329.063 81.5745 321.728 82.6853 315.872L92.686 318.03C94.1242 318.197 95.071 317.849 96.5199 318.63C99.4207 319.925 102.623 325.616 102.998 328.608L108.386 331.363L110.279 331.659C113.408 329.206 114.244 332.596 114.574 335.199L124.04 336.681L124.487 333.827L137.703 335.895L143.494 335.579L151.931 338.18L150.763 345.643L146.03 344.902L145.592 347.7L133.285 345.774L132.555 350.438L137.288 351.179L138.673 348.529L144.131 357.028L148.865 357.769L148.426 360.568C153.54 361.732 155.572 363.12 152.137 367.839L156.871 368.58L157.601 363.916L161.896 367.455L162.626 362.791L165.466 363.235L164.736 367.9L169.907 365.842L168.739 373.305L173.472 374.046L174.202 369.382L178.936 370.123L179.369 379.747L184.756 382.502C184.259 388.464 188.104 397.791 179.288 398.848L178.85 401.647L181.398 403.957L176.01 401.202L175.28 405.866L177.681 409.109L173.386 405.57L172.218 413.032L169.378 412.588L168.653 404.829L163.92 404.088C160.54 395.072 149.196 398.275 145.374 398.155C141.794 397.728 143.763 396.431 137.877 396.981L138.582 392.476L128.595 390.233L116.288 388.307L111.129 388.178L109.745 390.828C105.848 385.793 98.113 386.14 92.1964 385.214L91.4663 389.878C88.2168 388.394 87.9045 387.973 87.4632 384.473L84.6233 384.028L82.2919 386.53L81.9998 388.396L88.8507 396.302C92.3583 398.676 96.2985 397.668 100.057 396.957L99.0343 403.487C93.0371 400.225 93.8453 400.763 87.0199 399.694L87.458 396.896L76.3904 393.252L76.8285 390.453L73.9885 390.009L70.7105 392.363C71.1424 387.002 70.7201 385.053 64.9602 385.728L67.5836 381.361L62.8504 380.62C60.7789 385.055 59.1209 384.68 54.5471 384.098L56.2187 392.005L64.084 391.325L63.7919 393.191L59.0587 392.45L59.4916 402.074L62.3315 402.519L63.0566 410.278L61.6014 407.183L58.7614 406.739L57.3767 409.389L54.0282 405.998L53.152 411.594C49.8647 409.857 49.627 408.835 49.295 405.257L54.0282 405.998L54.7584 401.333C51.617 400.832 49.3113 401.064 47.4773 398.282L45.584 397.986C43.9485 399.326 43.8917 399.317 42.7441 397.541L40.8508 397.245L37.7188 398.666L37.2807 401.464C41.5944 404.08 38.5814 411.741 37.9301 415.901L42.6633 416.642L42.6582 429.065L47.3914 429.806L46.9533 432.605L52.6332 433.494L53.0713 430.695L59.6978 431.733L59.2597 434.531L62.0996 434.976L63.4844 432.326L66.8328 435.717L66.1027 440.381L75.2771 443.729L77.3868 448.837L74.839 446.527L72.9457 446.231L69.3756 450.45L78.842 451.932L78.4039 454.731L81.2439 455.175L82.6286 452.525C85.566 456.683 88.209 459.811 93.5502 457.102L95.4435 457.398C99.9591 461.45 103.174 455.598 104.18 463.544L107.02 463.989L110.298 461.635L109.568 466.299L116.486 465.471L115.323 460.51L122.635 462.869L129.523 462.733L128.793 467.397L131.633 467.842L132.801 460.379L130.399 457.136C133.686 458.874 133.924 459.896 134.256 463.474L138.989 464.215L137.972 458.322C142.116 458.369 142.991 458.104 145.329 454.695L148.169 455.14L152.464 458.679L153.194 454.015L156.472 451.661L161.205 452.402L162.661 455.497L163.829 448.035L166.669 448.479L165.5 455.942L167.394 456.238L168.562 448.776L178.537 453.204L172.57 441.758L175.919 445.149C180.05 440.998 181.411 441.288 187.062 442.115C188.81 438.881 189.845 438.652 193.472 438.34L189.902 442.56L194.635 443.301L195.803 435.838L198.789 435.35L196.096 433.973L196.534 431.174L199.812 428.82L206.438 429.858L206.005 420.233L212.194 424.069L211.902 425.934L207.168 425.193L206.73 427.992L214.303 429.178L217.728 425.891L215.034 424.513L215.472 421.715L219.042 417.496L223.775 418.236L224.505 413.572L219.334 415.63L222.395 408.464L227.567 406.406L227.859 404.541L226.696 399.58L228.589 399.877L227.859 404.541L236.162 401.062L236.6 398.264L233.906 396.886L239.224 393.896L236.892 396.398L236.6 398.264L238.055 401.359L240.895 401.803C242.545 399.137 242.987 399.531 246.067 399.746C243.995 404.181 242.337 403.806 237.763 403.224L236.379 405.874L233.03 402.483L231.862 409.946L237.033 407.888L234.41 412.256L239.143 412.997L238.705 415.795L233.972 415.054L232.511 424.383L227.778 423.642C225.661 427.563 223.692 427.503 219.475 427.12L225.442 438.567L217.868 437.381L217.576 439.247L225.149 440.432L224.711 443.231L217.138 442.045L217.576 439.247L212.843 438.506L215.099 442.682C210.792 445.907 211.294 448.403 210.507 453.431L206.211 449.891L205.481 454.555L202.641 454.111C200.482 463.693 196.478 458.603 193.824 467.066L190.984 466.621L188.215 471.922L187.923 473.787L189.378 476.882L181.513 477.562L178.451 484.728L175.611 484.284L174.156 481.189L174.663 488.914C174.187 491.582 172.547 492.271 170.54 493.696C161.722 499.962 162.381 494.761 151.94 493.002L152.378 490.203L147.645 489.462L149.316 497.37L138.903 495.739L138.173 500.403L136.28 500.107L137.01 495.443C132.999 496.593 132.476 497.333 131.255 501.232L126.521 500.491L127.544 493.961L124.704 493.516L122.08 497.884L121.788 499.75L123.243 502.845L118.51 502.104L116.108 498.86L115.232 504.457L113.339 504.161L114.507 496.698C110.387 496.627 108.792 496.903 106.204 500.177L110.937 500.918L110.499 503.716L105.766 502.975L105.257 500.029L103.872 502.679L101.032 502.234C99.3283 498.623 97.6292 498.882 93.8973 498.25L92.729 505.713L91.2738 502.618L88.4339 502.173C86.7848 504.84 86.3422 504.445 83.2626 504.231L86.8327 500.011L76.1275 500.247L75.3973 504.911L77.7992 508.154L73.0659 507.413C74.7097 512.401 73.347 510.945 71.6056 516.741L76.3388 517.482L75.6087 522.146L80.3419 522.887L79.9038 525.686L9.85198 514.719L11.3123 505.391L8.47239 504.946L8.47754 492.523L5.63761 492.079L4.90496 485.112L6.92462 472.211L3.97109 471.748L8.79022 440.965L11.6302 441.41L14.9838 432.378L17.8237 432.823C18.7423 428.752 19.2863 426.888 23.7252 426.101L25.9157 412.109L23.0758 411.664C23.1299 407.602 22.8429 406.028 19.5109 403.461C20.3484 398.049 21.601 394.384 16.6761 390.593L16.6582 382.84L17.2102 379.314L17.7035 371.64L14.8635 371.196L16.3239 361.868L13.4839 361.423L14.1584 345.282L17.7189 334.371L12.9857 333.63L14.446 324.302L17.432 323.814L14.7381 322.437L15.1762 319.638C18.8312 317.974 18.5603 316.297 19.1844 312.62C14.8406 310.631 14.7079 309.31 17.3667 305.646L10.7402 304.608L11.1783 301.81L3.89721 298.759L5.06548 291.296L2.22555 290.852L2.66365 288.053L6.23376 283.834L9.21973 283.345L6.96393 279.17L2.2307 278.429L2.96087 273.764L0.120935 273.32L5.37817 239.738L8.33171 240.201L9.91326 230.098L12.2259 223.751L11.5693 219.52L13.881 204.754L17.9973 190.107C23.7734 188.957 25.284 188.352 30.3036 192.034L32.7862 176.176L33.9597 156.29L31.1197 155.846C32.0967 149.605 34.8319 142.789 29.0151 138.314L28.2849 142.978L25.445 142.533L25.9885 131.504L27.3434 130.407L27.6355 128.541C24.1607 124.346 28.5309 118.857 29.826 114.549C22.6418 116.826 22.4237 110.475 25.969 108.211L26.2611 106.345L17.5248 100.199L17.9629 97.4008L22.6961 98.1418L22.258 100.94L29.8312 102.126L30.2693 99.3274L35.0025 100.068L35.7327 95.4043L38.5726 95.8489L40.2331 90.26C41.003 86.5196 38.5681 82.1246 47.3897 82.894L47.8278 80.0955L43.0945 79.3545L48.996 72.633L49.2881 70.7673L48.125 65.8068L45.285 65.3622L46.0152 60.6982L52.8582 66.5478L52.128 71.2119L57.2994 69.1545L60.653 60.1227C65.8393 58.899 73.5632 53.1126 75.1499 48.057L79.8831 48.798L83.1612 46.4441C84.5736 40.2717 86.0089 42.1307 89.3548 37.8569L94.088 38.5979C96.2051 34.6766 98.1743 34.7364 102.391 35.1194C103.735 32.2334 108.382 28.0773 111.702 27.2496C113.144 27.2078 114.694 27.5269 116.123 27.9417C117.431 24.9737 124.132 19.094 127.078 18.0548C128.998 17.3805 130.306 17.6331 132.256 17.8142C134.373 13.8928 136.342 13.9526 140.56 14.3357L140.998 11.5372L155.489 11.8946L155.927 9.09611L165.394 10.5781L165.832 7.77964C176.152 7.9617 171.493 2.282 182.001 3.6211L182.439 0.82264ZM39.5296 71.151L42.3695 71.5956L41.9314 74.394L39.0915 73.9494L39.5296 71.151ZM30.7881 77.4279L33.6281 77.8725L33.19 80.671L30.35 80.2264L30.7881 77.4279ZM45.2043 84.4632L42.3644 84.0186L41.6342 88.6827L44.4741 89.1273L45.2043 84.4632ZM34.7912 82.833L37.6311 83.2776L37.193 86.0761L34.3531 85.6315L34.7912 82.833ZM28.4516 92.353L33.1848 93.094L32.8927 94.9597L28.1595 94.2187L28.4516 92.353ZM29.5391 103.991L26.6992 103.547L26.2611 106.345L29.101 106.79L29.5391 103.991ZM30.7022 108.952L25.969 108.211L25.0928 113.808C28.7539 113.158 29.2925 112.258 30.7022 108.952ZM37.4387 196.018L34.5988 195.573L34.1607 198.372L37.0006 198.816L37.4387 196.018ZM63.2146 204.831L60.3747 204.387L59.6445 209.051L62.4844 209.496L61.7543 214.16L73.4352 214.134L86.6504 216.203L86.3671 218.013L78.7939 216.827L78.3558 219.626L92.5555 221.849L92.9936 219.05L88.2604 218.309L88.9905 213.645L76.9762 209.853L77.4143 207.054L72.6811 206.313L72.243 209.112C68.0967 208.463 65.1304 208.887 63.2146 204.831ZM196.254 228.526L198.147 228.822C201.89 232.543 209.745 232.549 214.894 233.356L214.456 236.154L217.296 236.599L219.153 234.586L230.3 235.127L231.204 240.687L236.667 236.764L244.24 237.95L247.805 246.153L250.645 246.598L252.03 243.948L259.382 252.744L258.213 260.207L263.385 258.149L257.483 264.871L262.216 265.612C257.727 271.178 258.63 269.934 257.478 277.294L253.183 273.754L253.621 270.956L256.753 269.535L244.155 269.474L241.093 276.64L229.079 272.848C232.268 282.025 227.614 281.831 224.048 286.395L217.422 285.358L214.144 287.712L215.02 282.115L222.593 283.301C221.023 280.818 218.83 276.796 215.918 275.881L206.284 275.969L205.845 278.767L201.112 278.026L201.55 275.228C194.162 273.851 196.789 272.686 191.867 268.934C193.395 258.307 190.24 260.622 183.569 259.989C180.806 266.8 181.413 262.92 181.963 270.25L172.496 268.768L172.934 265.97L177.668 266.711L177.96 264.845L168.201 265.229C171.113 259.95 171.849 257.294 164.928 255.159L165.366 252.361L160.633 251.62L162.386 240.426L159.546 239.982L161.444 227.855L166.177 228.596L166.615 225.797L169.455 226.242L169.964 229.189C176.602 223.337 188.41 232.535 196.254 228.526ZM230.041 235.727L227.201 235.282L226.763 238.081L229.603 238.525L230.041 235.727ZM32.7003 207.7L30.807 207.403L30.0769 212.068L31.9702 212.364L32.7003 207.7ZM219.839 251.332L216.999 250.887L216.561 253.686L219.401 254.13L219.839 251.332ZM219.109 255.996L209.756 252.735L199.504 251.13L198.791 255.682L218.379 260.66C219.196 265.041 221.089 265.586 225.222 266.51C225.554 270.088 225.791 271.11 229.079 272.848L229.955 267.251L225.952 261.846C222.007 260.655 220.572 259.905 219.109 255.996ZM197.336 252.587L194.496 252.143L194.058 254.941L196.898 255.386L197.336 252.587ZM233.308 258.219L226.682 257.182L226.244 259.98L232.87 261.017L233.308 258.219ZM243.283 262.648L237.604 261.758L237.312 263.624L242.991 264.513L243.283 262.648ZM84.1714 244.428L87.0113 244.873L86.1351 250.47L83.2952 250.025L84.1714 244.428ZM326.513 282.367L329.353 282.812L330.078 290.571L323.451 289.533L323.013 292.332L315.44 291.146L321.341 284.425L326.513 282.367ZM88.4665 247.968L91.3065 248.412L90.8684 251.211L88.0284 250.766L88.4665 247.968ZM234.683 280.415L237.523 280.859L237.085 283.658L234.245 283.213L234.683 280.415ZM185.966 275.655L194.24 278.805L205.562 280.577L205.115 283.431L189.969 281.06L189.46 278.114L185.236 280.319L185.966 275.655ZM207.447 280.929L212.18 281.67C210.77 284.976 210.232 285.876 206.57 286.526L207.447 280.929ZM22.6291 259.641L29.2556 260.679L25.4639 272.509L22.624 272.064L22.6291 259.641ZM26.627 277.469L29.467 277.914L28.7368 282.578L21.1636 281.392L21.4557 279.527L26.627 277.469ZM273.621 335.25L276.461 335.695C274.953 338.574 273.882 339.343 270.851 340.551L273.621 335.25ZM22.7494 320.824L19.9094 320.379L19.4713 323.178L22.3113 323.622L22.7494 320.824ZM272.367 374.237L275.207 374.681L274.769 377.48L271.929 377.035L272.367 374.237ZM114.785 352.434L111.945 351.99L111.507 354.788L114.347 355.233L114.785 352.434ZM274.33 380.278L278.772 382.885L277.603 390.348L282.337 391.089L283.067 386.424L285.907 386.869L285.176 391.533C279.13 392.737 280.153 392.897 274.763 389.903L274.33 380.278ZM148.134 362.434L145.294 361.989L144.856 364.787L147.696 365.232L148.134 362.434ZM152.868 363.175L150.028 362.73L149.59 365.528L152.43 365.973L152.868 363.175ZM232.386 375.623L235.226 376.068L234.788 378.866L231.948 378.422L232.386 375.623ZM113.325 361.762L110.485 361.318L109.755 365.982L105.314 363.375L102.69 367.743L102.398 369.609C105.563 373.306 109.675 382.292 115.722 377.429L117.615 377.725C119.897 381.179 125.795 380.917 129.629 381.517L128.904 373.758L135.531 374.796L137.933 378.039L138.663 373.375L135.314 369.983C131.076 372.894 129.395 371.924 124.463 371.152L124.901 368.353L122.061 367.909C119.335 370.827 117.797 370.06 114.05 369.521L113.325 361.762ZM243.232 386.878L246.072 387.323L245.634 390.121L242.794 389.676L243.232 386.878ZM53.4647 360.037L48.7315 359.296L48.4394 361.161L53.1726 361.902L53.4647 360.037ZM223.861 386.712L230.195 389.616L229.757 392.414L225.024 391.673L222.693 394.175L223.861 386.712ZM150.239 379.965L147.399 379.521L146.961 382.319L149.801 382.764L150.239 379.965ZM166.841 385.431C163.293 385.851 162.867 386.157 161.377 389.354L166.11 390.095L166.841 385.431ZM171.282 388.038L168.442 387.593L168.004 390.392L170.844 390.836L171.282 388.038ZM45.8108 377.952L36.3443 376.47L35.6141 381.134L30.8809 380.393L30.0047 385.99L27.1648 385.545L26.1425 392.075C31.437 391.709 33.8756 390.505 36.1175 396.504L40.8508 397.245L42.3111 387.917L47.0443 388.658L47.4824 385.859L42.7492 385.118L45.8108 377.952ZM230.407 406.851L227.567 406.406L226.837 411.07L229.677 411.515L230.407 406.851ZM234.41 412.256L229.677 411.515L228.8 417.112C231.831 415.904 232.902 415.135 234.41 412.256ZM66.4154 388.823L69.2553 389.268L68.8172 392.066L65.9773 391.622L66.4154 388.823ZM51.7776 389.399L47.0443 388.658C47.8565 391.833 48.0834 392.49 51.0474 394.063L51.7776 389.399ZM119.936 400.069L121.829 400.365L121.099 405.029L119.206 404.733L119.936 400.069ZM56.2187 392.005L53.3788 391.561L52.9407 394.359L55.7806 394.804L56.2187 392.005ZM73.2584 394.673L76.0983 395.117L75.6602 397.916L72.8202 397.471L73.2584 394.673ZM48.2075 393.618L43.4742 392.877L42.7441 397.541C46.0469 396.95 46.4636 396.394 48.2075 393.618ZM169.086 414.453L176.951 413.773L173.381 417.993L168.648 417.252L169.086 414.453ZM33.7157 393.261L28.9825 392.52L28.5444 395.318L33.2776 396.059L33.7157 393.261ZM50.7553 395.928L47.9154 395.484L47.4773 398.282L50.3172 398.727L50.7553 395.928ZM55.4886 396.669L52.6486 396.225L52.2105 399.023L55.0505 399.468L55.4886 396.669ZM72.5282 399.337L80.1013 400.523L79.3712 405.187C81.8402 404.407 82.5615 403.641 84.1044 405.928L85.9977 406.224C88.4075 404.336 88.337 405.778 90.9118 406.305L95.5462 406.438C97.465 406.882 97.5825 407.866 103.037 408.892L102.307 413.556L107.771 409.633L112.504 410.374C114.111 414.668 115.31 414.875 119.639 414.358L113.737 421.079L110.897 420.635L110.389 417.688C106.978 420.766 103.75 421.131 99.2456 420.722L98.5154 425.386L91.2343 422.335L91.6724 419.536L94.6584 419.048C92.0612 416.185 92.392 415.807 92.8407 412.074L88.1075 411.333L87.6694 414.131L84.8294 413.687C83.5539 409.444 82.8788 409.358 78.641 409.851L79.3712 405.187L71.798 404.001L72.5282 399.337ZM67.3569 401.394L69.2501 401.691L68.52 406.355L63.7867 405.614L67.3569 401.394ZM88.8376 406.669L85.9977 406.224L85.5596 409.022L88.3995 409.467L88.8376 406.669ZM163.623 418.376L166.463 418.821L166.024 421.619L163.185 421.175L163.623 418.376ZM100.414 413.259L97.5739 412.815L96.6977 418.412L99.5376 418.856L100.414 413.259ZM209.278 430.302L206.438 429.858L201.267 431.915L200.829 434.714L208.402 435.899L209.278 430.302ZM104.709 416.799L101.869 416.354L101.431 419.153L104.271 419.597L104.709 416.799ZM40.5535 411.534L43.3935 411.978L42.9554 414.777L40.1154 414.332L40.5535 411.534ZM184.877 443.684L180.143 442.943L179.705 445.742L184.439 446.483L184.877 443.684ZM186.332 446.779L184.439 446.483L179.267 448.54L180.43 453.501L183.27 453.945L186.332 446.779ZM192.012 447.668L189.172 447.224L188.734 450.022L191.574 450.467L192.012 447.668ZM48.1216 425.142L50.9615 425.587L50.5234 428.385L47.6835 427.941L48.1216 425.142ZM80.3075 430.181L82.2008 430.477C80.711 433.675 80.2848 433.981 76.7374 434.4L80.3075 430.181ZM150.359 441.148L153.199 441.592L152.761 444.391L149.921 443.946L150.359 441.148ZM59.2597 434.531L52.6332 433.494C53.6132 437.394 54.7661 438.95 58.2374 441.061L59.2597 434.531ZM236.282 462.245L239.122 462.689L236.932 476.681L234.092 476.237L236.282 462.245ZM52.3411 435.36L49.5011 434.915L49.063 437.713L51.903 438.158L52.3411 435.36ZM173.512 454.329L170.672 453.884L170.234 456.683L173.074 457.127L173.512 454.329ZM127.126 447.067L129.966 447.512L129.528 450.31L126.688 449.866L127.126 447.067ZM162.368 457.363L160.475 457.067L159.745 461.731L161.638 462.027L162.368 457.363ZM149.84 463.047C148.782 457.415 143.577 455.291 141.829 464.66L149.84 463.047ZM55.614 445.429L52.774 444.984L52.3359 447.783L55.1759 448.227L55.614 445.429ZM122.826 455.951L125.666 456.395L125.228 459.194L122.388 458.749L122.826 455.951ZM195.718 467.362L198.557 467.807L198.119 470.605L195.279 470.161L195.718 467.362ZM192.948 472.663L194.841 472.959L194.111 477.623L192.218 477.327L192.948 472.663ZM109.568 466.299L106.728 465.854L106.29 468.653L109.13 469.098L109.568 466.299ZM168.255 487.91L165.415 487.466L164.976 490.264L167.816 490.709L168.255 487.91ZM167.086 495.373C166.41 491.76 165.495 491.225 162.137 489.82L161.406 494.484L167.086 495.373ZM216.528 507.892L219.368 508.336L218.638 513L215.798 512.556L216.528 507.892ZM104.749 497.082L101.909 496.638L101.47 499.436L104.31 499.881L104.749 497.082ZM213.613 514.125L215.506 514.421L212.006 524.386L209.166 523.941L205.375 535.772L202.535 535.327L201.074 544.655L196.341 543.914L197.509 536.452C201.957 535.179 202.406 534.045 203.411 529.73L206.251 530.175L209.897 519.277L212.737 519.722L213.613 514.125ZM137.005 507.866L142.685 508.755L142.393 510.621L136.713 509.732L137.005 507.866ZM149.019 511.658L151.859 512.103L151.421 514.901L148.581 514.457L149.019 511.658ZM72.7739 509.279L69.9339 508.834L69.4958 511.633L72.3358 512.077L72.7739 509.279Z" fill="#FF0000"/>
</svg>
